<?xml version="1.0" ?><svg style="enable-background:new 0 0 48 48;" version="1.1" viewBox="0 0 48 48" xml:space="preserve" xmlns="http://www.w3.org/2000/svg" xmlns:xlink="http://www.w3.org/1999/xlink"><g id="Icons"><g><path d="M19.22425,32.65403l14.04136-7.46777c0.9611-0.51115,0.96122-1.88839,0.00022-2.39972    l-13.86819-7.37887c-0.27948-0.14871-0.60212-0.19518-0.91221-0.13139l-3.35653,0.69044    c-0.94959,0.19533-1.39516,1.29359-0.85008,2.09532l2.99964,4.41199c0.2987,0.43934,0.78275,0.717,1.31279,0.75304    l11.1421,0.75763l-11.38489,0.84704c-0.41396,0.0308-0.79115,0.24909-1.02408,0.59268l-3.07558,4.53661    c-0.54833,0.80882-0.08945,1.91469,0.87044,2.09766l3.55776,0.67818C18.86353,32.77242,19.05661,32.74319,19.22425,32.65403z" style="fill:#E52046;"/><path d="    M19.22425,32.65403l14.04136-7.46777c0.9611-0.51115,0.96122-1.88839,0.00022-2.39972l-13.86819-7.37887    c-0.27948-0.14871-0.60212-0.19518-0.91221-0.13139l-3.35653,0.69044c-0.94959,0.19533-1.39516,1.29359-0.85008,2.09532    l2.99964,4.41199c0.2987,0.43934,0.78275,0.717,1.31279,0.75304l11.1421,0.75763l-11.38489,0.84704    c-0.41396,0.0308-0.79115,0.24909-1.02408,0.59268l-3.07558,4.53661c-0.54833,0.80882-0.08945,1.91469,0.87044,2.09766    l3.55776,0.67818C18.86353,32.77242,19.05661,32.74319,19.22425,32.65403z" style="fill:none;stroke:#303030;stroke-width:0.7;stroke-linecap:round;stroke-linejoin:round;stroke-miterlimit:10;"/></g></g></svg>